{"title":"Born.To.Race.2011.DVDRip.x264.AC3.RoSub-Psycho","uid":6719672,"size":793258921,"categoryP":"video","categoryS":"movies","magnet":"?xt=urn:btih:c740f6a75c5b8e743de064372db22a36a41b1cef&amp;dn=Born.To.Race.2011.DVDRip.x264.AC3.RoSub-Psycho&amp;tr=udp%3A%2F%2Ftracker.openbittorrent.com%3A80&amp;tr=udp%3A%2F%2Fopen.demonii.com%3A1337&amp;tr=udp%3A%2F%2Ftracker.coppersurfer.tk%3A6969&amp;tr=udp%3A%2F%2Fexodus.desync.com%3A6969","seeders":0,"leechers":0,"uploader":"Francisco1206","files":-1,"time":1317746958,"description":"Born To Race is the story of Danny Krueger, a rebellious young street racer on a collision course with trouble. After an accident at an illegal street race, he is sent to a small town to live with his estranged father, a washed up NASCAR racer. When Danny decides to enter the NHRA High School Drags, he's forced to seek his father's help in taking down the local hot shot.\n\nCAST:\n\nJoseph Cross..............Danny Krueger\nJohn Pyper-Ferguson.......Frank Krueger\nBrando Eaton..............Jake Kendall\nNicole Badaan.............Jessica\nSherry Stringfield........Lisa Abrams\nSpencer Breslin...........Max\nChristina Moore...........Ms. Parker\nErik King.................Mr. Briggs\nJohanna Braddy............Rachel\nMatt McCoy................Joe\nGrant Show................Jimmy Kendall\nWalter Perez..............Tony\nMichael Esparza...........Sanchez\nAli Afshar................Himself\nWhitmer Thomas............Harry \n\nFormat                           : Matroska\nFile size                        : 748 MiB\nDuration                         : 1h 34mn\nOverall bit rate                 : 1 105 Kbps\nEncoded date                     : UTC 2011-10-02 06:42:41\nWriting application              : mkvmerge v5.0.0 ('Die Wahre Liebe') built on Sep 25 2011 20:33:49\nWriting library                  : libebml v1.2.2 + libmatroska v1.3.0\n\nVideo\n*****\nID                               : 1\nFormat                           : AVC\nFormat/Info                      : Advanced Video Codec\nFormat profile                   : &lt;a class=&quot;__cf_email__&quot; href=&quot;/cdn-cgi/l/email-protection&quot; data-cfemail=&quot;f4b9959d9ab4b8c6dac5&quot;&gt;[email&amp;#160;protected]&lt;/a&gt;&lt;script data-cfhash='f9e31' type=&quot;text/javascript&quot;&gt;\n/* &lt;![CDATA[ */!function(){try{var t=&quot;currentScript&quot;in document?document.currentScript:function(){for(var t=document.getElementsByTagName(&quot;script&quot;),e=t.length;e--;)if(t[e].getAttribute(&quot;data-cfhash&quot;))return t[e]}();if(t&amp;&amp;t.previousSibling){var e,r,n,i,c=t.previousSibling,a=c.getAttribute(&quot;data-cfemail&quot;);if(a){for(e=&quot;&quot;,r=parseInt(a.substr(0,2),16),n=2;a.length-n;n+=2)i=parseInt(a.substr(n,2),16)^r,e+=String.fromCharCode(i);e=document.createTextNode(e),c.parentNode.replaceChild(e,c)}t.parentNode.removeChild(t);}}catch(u){}}()/* ]]&gt; */&lt;/script&gt;\nFormat settings, CABAC           : Yes\nFormat settings, ReFrames        : 4 frames\nMuxing mode                      : Container profile=&lt;a class=&quot;__cf_email__&quot; href=&quot;/cdn-cgi/l/email-protection&quot; data-cfemail=&quot;aaffc4c1c4c5ddc4ea98849b&quot;&gt;[email&amp;#160;protected]&lt;/a&gt;&lt;script data-cfhash='f9e31' type=&quot;text/javascript&quot;&gt;\n/* &lt;![CDATA[ */!function(){try{var t=&quot;currentScript&quot;in document?document.currentScript:function(){for(var t=document.getElementsByTagName(&quot;script&quot;),e=t.length;e--;)if(t[e].getAttribute(&quot;data-cfhash&quot;))return t[e]}();if(t&amp;&amp;t.previousSibling){var e,r,n,i,c=t.previousSibling,a=c.getAttribute(&quot;data-cfemail&quot;);if(a){for(e=&quot;&quot;,r=parseInt(a.substr(0,2),16),n=2;a.length-n;n+=2)i=parseInt(a.substr(n,2),16)^r,e+=String.fromCharCode(i);e=document.createTextNode(e),c.parentNode.replaceChild(e,c)}t.parentNode.removeChild(t);}}catch(u){}}()/* ]]&gt; */&lt;/script&gt;\nCodec ID                         : V_MPEG4/ISO/AVC\nDuration                         : 1h 34mn\nBit rate                         : 955 Kbps\nNominal bit rate                 : 976 Kbps\nWidth                            : 640 pixels\nHeight                           : 300 pixels\nDisplay aspect ratio             : 2.2:1\nFrame rate                       : 23.976 fps\nResolution                       : 8 bits\nColorimetry                      : 4:2:0\nScan type                        : Progressive\nBits/(Pixel*Frame)               : 0.207\nStream size                      : 646 MiB (86%)\nWriting library                  : x264 core 112\n\nAudio\n*****\nID                               : 2\nFormat                           : AC-3\nFormat/Info                      : Audio Coding 3\nCodec ID                         : A_AC3\nDuration                         : 1h 34mn\nBit rate mode                    : Constant\nBit rate                         : 128 Kbps\nChannel(s)                       : 2 channels\nChannel positions                : Front: L R\nSampling rate                    : 48.0 KHz\nStream size                      : 86.7 MiB (12%)\n\nText(subtitles)\n***************\nID                               : 3\nFormat                           : UTF-8\nCodec ID                         : S_TEXT/UTF8\nCodec ID/Info                    : UTF-8 Plain Text\nLanguage                         : Romanian\nLanguage                         : Spanish\nLanguage                         : Dutch\n\nPLEASE SEED FOR AS LONG AS POSSIBLE!","torrent":{"xt":"urn:btih:c740f6a75c5b8e743de064372db22a36a41b1cef","amp;dn":"Born.To.Race.2011.DVDRip.x264.AC3.RoSub-Psycho","amp;tr":["udp%3A%2F%2Ftracker.openbittorrent.com%3A80","udp%3A%2F%2Fopen.demonii.com%3A1337","udp%3A%2F%2Ftracker.coppersurfer.tk%3A6969","udp%3A%2F%2Fexodus.desync.com%3A6969"],"infoHash":"c740f6a75c5b8e743de064372db22a36a41b1cef","infoHashBuffer":{"type":"Buffer","data":[199,64,246,167,92,91,142,116,61,224,100,55,45,178,42,54,164,27,28,239]},"announce":[],"urlList":[]}}